v 1.4259225130081177 0.0 0.0
v 1.392619013786316 0.0 0.1242903396487236
v 1.3016321659088135 0.0 0.21527718007564545
v 1.1773418188095093 0.0 0.2485806792974472
v 1.053051471710205 0.0 0.21527718007564545
v 0.9620646238327026 0.0 0.1242903396487236
v 0.9287611246109009 0.0 3.0442350889429753e-17
v 0.9620646238327026 0.0 -0.1242903396487236
v 1.053051471710205 0.0 -0.21527718007564545
v 1.1773418188095093 0.0 -0.2485806792974472
v 1.3016321659088135 0.0 -0.21527718007564545
v 1.392619013786316 0.0 -0.1242903396487236
v 1.3773353099822998 0.3690558969974518 0.0
v 1.3451666831970215 0.3604363203048706 0.1242903396487236
v 1.2572801113128662 0.3368871808052063 0.21527718007564545
v 1.1372249126434326 0.3047184944152832 0.2485806792974472
v 1.0171695947647095 0.2725497782230377 0.21527718007564545
v 0.929283082485199 0.2490006536245346 0.1242903396487236
v 0.8971143960952759 0.24038107693195343 3.0442350889429753e-17
v 0.929283082485199 0.2490006536245346 -0.1242903396487236
v 1.0171695947647095 0.2725497782230377 -0.21527718007564545
v 1.1372249126434326 0.3047184944152832 -0.2485806792974472
v 1.2572801113128662 0.3368871808052063 -0.21527718007564545
v 1.3451666831970215 0.3604363203048706 -0.1242903396487236
v 1.2348850965499878 0.7129612565040588 0.0
v 1.2060434818267822 0.696309506893158 0.1242903396487236
v 1.1272464990615845 0.6508160829544067 0.21527718007564545
v 1.0196079015731812 0.5886709094047546 0.2485806792974472
v 0.9119693636894226 0.5265257358551025 0.21527718007564545
v 0.8331724405288696 0.4810323119163513 0.1242903396487236
v 0.8043307662010193 0.46438056230545044 3.0442350889429753e-17
v 0.8331724405288696 0.4810323119163513 -0.1242903396487236
v 0.9119693636894226 0.5265257358551025 -0.21527718007564545
v 1.0196079015731812 0.5886709094047546 -0.2485806792974472
v 1.1272464990615845 0.6508160829544067 -0.21527718007564545
v 1.2060434818267822 0.696309506893158 -0.1242903396487236
v 1.0082794427871704 1.0082794427871704 0.0
v 0.9847303628921509 0.9847303628921509 0.1242903396487236
v 0.9203929305076599 0.9203929305076599 0.21527718007564545
v 0.8325063586235046 0.8325063586235046 0.2485806792974472
v 0.7446198463439941 0.7446198463439941 0.21527718007564545
v 0.6802824139595032 0.6802824139595032 0.1242903396487236
v 0.6567333340644836 0.6567333340644836 3.0442350889429753e-17
v 0.6802824139595032 0.6802824139595032 -0.1242903396487236
v 0.7446198463439941 0.7446198463439941 -0.21527718007564545
v 0.8325063586235046 0.8325063586235046 -0.2485806792974472
v 0.9203929305076599 0.9203929305076599 -0.21527718007564545
v 0.9847303628921509 0.9847303628921509 -0.1242903396487236
v 0.7129612565040588 1.2348850965499878 0.0
v 0.696309506893158 1.2060434818267822 0.1242903396487236
v 0.6508160829544067 1.1272464990615845 0.21527718007564545
v 0.5886709094047546 1.0196079015731812 0.2485806792974472
v 0.5265257358551025 0.9119693636894226 0.21527718007564545
v 0.4810323119163513 0.8331724405288696 0.1242903396487236
v 0.46438056230545044 0.8043307662010193 3.0442350889429753e-17
v 0.4810323119163513 0.8331724405288696 -0.1242903396487236
v 0.5265257358551025 0.9119693636894226 -0.21527718007564545
v 0.5886709094047546 1.0196079015731812 -0.2485806792974472
v 0.6508160829544067 1.1272464990615845 -0.21527718007564545
v 0.696309506893158 1.2060434818267822 -0.1242903396487236
v 0.3690558969974518 1.3773353099822998 0.0
v 0.3604363203048706 1.3451666831970215 0.1242903396487236
v 0.3368871808052063 1.2572801113128662 0.21527718007564545
v 0.3047184944152832 1.1372249126434326 0.2485806792974472
v 0.2725497782230377 1.0171695947647095 0.21527718007564545
v 0.2490006536245346 0.929283082485199 0.1242903396487236
v 0.24038107693195343 0.8971143960952759 3.0442350889429753e-17
v 0.2490006536245346 0.929283082485199 -0.1242903396487236
v 0.2725497782230377 1.0171695947647095 -0.21527718007564545
v 0.3047184944152832 1.1372249126434326 -0.2485806792974472
v 0.3368871808052063 1.2572801113128662 -0.21527718007564545
v 0.3604363203048706 1.3451666831970215 -0.1242903396487236
v 8.7312573102002e-17 1.4259225130081177 0.0
v 8.527332142915258e-17 1.392619013786316 0.1242903396487236
v 7.970198207092212e-17 1.3016321659088135 0.21527718007564545
v 7.209139765728713e-17 1.1773418188095093 0.2485806792974472
v 6.448080662620724e-17 1.053051471710205 0.21527718007564545
v 5.890946726797678e-17 0.9620646238327026 0.1242903396487236
v 5.687021559512735e-17 0.9287611246109009 3.0442350889429753e-17
v 5.890946726797678e-17 0.9620646238327026 -0.1242903396487236
v 6.448080662620724e-17 1.053051471710205 -0.21527718007564545
v 7.209139765728713e-17 1.1773418188095093 -0.2485806792974472
v 7.970198207092212e-17 1.3016321659088135 -0.21527718007564545
v 8.527332142915258e-17 1.392619013786316 -0.1242903396487236
v -0.3690558969974518 1.3773353099822998 0.0
v -0.3604363203048706 1.3451666831970215 0.1242903396487236
v -0.3368871808052063 1.2572801113128662 0.21527718007564545
v -0.3047184944152832 1.1372249126434326 0.2485806792974472
v -0.2725497782230377 1.0171695947647095 0.21527718007564545
v -0.2490006536245346 0.929283082485199 0.1242903396487236
v -0.24038107693195343 0.8971143960952759 3.0442350889429753e-17
v -0.2490006536245346 0.929283082485199 -0.1242903396487236
v -0.2725497782230377 1.0171695947647095 -0.21527718007564545
v -0.3047184944152832 1.1372249126434326 -0.2485806792974472
v -0.3368871808052063 1.2572801113128662 -0.21527718007564545
v -0.3604363203048706 1.3451666831970215 -0.1242903396487236
v -0.7129612565040588 1.2348850965499878 0.0
v -0.696309506893158 1.2060434818267822 0.1242903396487236
v -0.6508160829544067 1.1272464990615845 0.21527718007564545
v -0.5886709094047546 1.0196079015731812 0.2485806792974472
v -0.5265257358551025 0.9119693636894226 0.21527718007564545
v -0.4810323119163513 0.8331724405288696 0.1242903396487236
v -0.46438056230545044 0.8043307662010193 3.0442350889429753e-17
v -0.4810323119163513 0.8331724405288696 -0.1242903396487236
v -0.5265257358551025 0.9119693636894226 -0.21527718007564545
v -0.5886709094047546 1.0196079015731812 -0.2485806792974472
v -0.6508160829544067 1.1272464990615845 -0.21527718007564545
v -0.696309506893158 1.2060434818267822 -0.1242903396487236
v -1.0082794427871704 1.0082794427871704 0.0
v -0.9847303628921509 0.9847303628921509 0.1242903396487236
v -0.9203929305076599 0.9203929305076599 0.21527718007564545
v -0.8325063586235046 0.8325063586235046 0.2485806792974472
v -0.7446198463439941 0.7446198463439941 0.21527718007564545
v -0.6802824139595032 0.6802824139595032 0.1242903396487236
v -0.6567333340644836 0.6567333340644836 3.0442350889429753e-17
v -0.6802824139595032 0.6802824139595032 -0.1242903396487236
v -0.7446198463439941 0.7446198463439941 -0.21527718007564545
v -0.8325063586235046 0.8325063586235046 -0.2485806792974472
v -0.9203929305076599 0.9203929305076599 -0.21527718007564545
v -0.9847303628921509 0.9847303628921509 -0.1242903396487236
v -1.2348850965499878 0.7129612565040588 0.0
v -1.2060434818267822 0.696309506893158 0.1242903396487236
v -1.1272464990615845 0.6508160829544067 0.21527718007564545
v -1.0196079015731812 0.5886709094047546 0.2485806792974472
v -0.9119693636894226 0.5265257358551025 0.21527718007564545
v -0.8331724405288696 0.4810323119163513 0.1242903396487236
v -0.8043307662010193 0.46438056230545044 3.0442350889429753e-17
v -0.8331724405288696 0.4810323119163513 -0.1242903396487236
v -0.9119693636894226 0.5265257358551025 -0.21527718007564545
v -1.0196079015731812 0.5886709094047546 -0.2485806792974472
v -1.1272464990615845 0.6508160829544067 -0.21527718007564545
v -1.2060434818267822 0.696309506893158 -0.1242903396487236
v -1.3773353099822998 0.3690558969974518 0.0
v -1.3451666831970215 0.3604363203048706 0.1242903396487236
v -1.2572801113128662 0.3368871808052063 0.21527718007564545
v -1.1372249126434326 0.3047184944152832 0.2485806792974472
v -1.0171695947647095 0.2725497782230377 0.21527718007564545
v -0.929283082485199 0.2490006536245346 0.1242903396487236
v -0.8971143960952759 0.24038107693195343 3.0442350889429753e-17
v -0.929283082485199 0.2490006536245346 -0.1242903396487236
v -1.0171695947647095 0.2725497782230377 -0.21527718007564545
v -1.1372249126434326 0.3047184944152832 -0.2485806792974472
v -1.2572801113128662 0.3368871808052063 -0.21527718007564545
v -1.3451666831970215 0.3604363203048706 -0.1242903396487236
v -1.4259225130081177 1.74625146204004e-16 0.0
v -1.392619013786316 1.7054664285830515e-16 0.1242903396487236
v -1.3016321659088135 1.5940396414184423e-16 0.21527718007564545
v -1.1773418188095093 1.4418279531457426e-16 0.2485806792974472
v -1.053051471710205 1.2896161325241448e-16 0.21527718007564545
v -0.9620646238327026 1.1781893453595356e-16 0.1242903396487236
v -0.9287611246109009 1.137404311902547e-16 3.0442350889429753e-17
v -0.9620646238327026 1.1781893453595356e-16 -0.1242903396487236
v -1.053051471710205 1.2896161325241448e-16 -0.21527718007564545
v -1.1773418188095093 1.4418279531457426e-16 -0.2485806792974472
v -1.3016321659088135 1.5940396414184423e-16 -0.21527718007564545
v -1.392619013786316 1.7054664285830515e-16 -0.1242903396487236
v -1.3773353099822998 -0.3690558969974518 0.0
v -1.3451666831970215 -0.3604363203048706 0.1242903396487236
v -1.2572801113128662 -0.3368871808052063 0.21527718007564545
v -1.1372249126434326 -0.3047184944152832 0.2485806792974472
v -1.0171695947647095 -0.2725497782230377 0.21527718007564545
v -0.929283082485199 -0.2490006536245346 0.1242903396487236
v -0.8971143960952759 -0.24038107693195343 3.0442350889429753e-17
v -0.929283082485199 -0.2490006536245346 -0.1242903396487236
v -1.0171695947647095 -0.2725497782230377 -0.21527718007564545
v -1.1372249126434326 -0.3047184944152832 -0.2485806792974472
v -1.2572801113128662 -0.3368871808052063 -0.21527718007564545
v -1.3451666831970215 -0.3604363203048706 -0.1242903396487236
v -1.2348850965499878 -0.7129612565040588 0.0
v -1.2060434818267822 -0.696309506893158 0.1242903396487236
v -1.1272464990615845 -0.6508160829544067 0.21527718007564545
v -1.0196079015731812 -0.5886709094047546 0.2485806792974472
v -0.9119693636894226 -0.5265257358551025 0.21527718007564545
v -0.8331724405288696 -0.4810323119163513 0.1242903396487236
v -0.8043307662010193 -0.46438056230545044 3.0442350889429753e-17
v -0.8331724405288696 -0.4810323119163513 -0.1242903396487236
v -0.9119693636894226 -0.5265257358551025 -0.21527718007564545
v -1.0196079015731812 -0.5886709094047546 -0.2485806792974472
v -1.1272464990615845 -0.6508160829544067 -0.21527718007564545
v -1.2060434818267822 -0.696309506893158 -0.1242903396487236
v -1.0082794427871704 -1.0082794427871704 0.0
v -0.9847303628921509 -0.9847303628921509 0.1242903396487236
v -0.9203929305076599 -0.9203929305076599 0.21527718007564545
v -0.8325063586235046 -0.8325063586235046 0.2485806792974472
v -0.7446198463439941 -0.7446198463439941 0.21527718007564545
v -0.6802824139595032 -0.6802824139595032 0.1242903396487236
v -0.6567333340644836 -0.6567333340644836 3.0442350889429753e-17
v -0.6802824139595032 -0.6802824139595032 -0.1242903396487236
v -0.7446198463439941 -0.7446198463439941 -0.21527718007564545
v -0.8325063586235046 -0.8325063586235046 -0.2485806792974472
v -0.9203929305076599 -0.9203929305076599 -0.21527718007564545
v -0.9847303628921509 -0.9847303628921509 -0.1242903396487236
v -0.7129612565040588 -1.2348850965499878 0.0
v -0.696309506893158 -1.2060434818267822 0.1242903396487236
v -0.6508160829544067 -1.1272464990615845 0.21527718007564545
v -0.5886709094047546 -1.0196079015731812 0.2485806792974472
v -0.5265257358551025 -0.9119693636894226 0.21527718007564545
v -0.4810323119163513 -0.8331724405288696 0.1242903396487236
v -0.46438056230545044 -0.8043307662010193 3.0442350889429753e-17
v -0.4810323119163513 -0.8331724405288696 -0.1242903396487236
v -0.5265257358551025 -0.9119693636894226 -0.21527718007564545
v -0.5886709094047546 -1.0196079015731812 -0.2485806792974472
v -0.6508160829544067 -1.1272464990615845 -0.21527718007564545
v -0.696309506893158 -1.2060434818267822 -0.1242903396487236
v -0.3690558969974518 -1.3773353099822998 0.0
v -0.3604363203048706 -1.3451666831970215 0.1242903396487236
v -0.3368871808052063 -1.2572801113128662 0.21527718007564545
v -0.3047184944152832 -1.1372249126434326 0.2485806792974472
v -0.2725497782230377 -1.0171695947647095 0.21527718007564545
v -0.2490006536245346 -0.929283082485199 0.1242903396487236
v -0.24038107693195343 -0.8971143960952759 3.0442350889429753e-17
v -0.2490006536245346 -0.929283082485199 -0.1242903396487236
v -0.2725497782230377 -1.0171695947647095 -0.21527718007564545
v -0.3047184944152832 -1.1372249126434326 -0.2485806792974472
v -0.3368871808052063 -1.2572801113128662 -0.21527718007564545
v -0.3604363203048706 -1.3451666831970215 -0.1242903396487236
v -2.619377126885611e-16 -1.4259225130081177 0.0
v -2.5581996428745773e-16 -1.392619013786316 0.1242903396487236
v -2.3910593959532145e-16 -1.3016321659088135 0.21527718007564545
v -2.1627417973697159e-16 -1.1773418188095093 0.2485806792974472
v -1.9344241987862172e-16 -1.053051471710205 0.21527718007564545
v -1.7672840842137524e-16 -0.9620646238327026 0.1242903396487236
v -1.7061066002027186e-16 -0.9287611246109009 3.0442350889429753e-17
v -1.7672840842137524e-16 -0.9620646238327026 -0.1242903396487236
v -1.9344241987862172e-16 -1.053051471710205 -0.21527718007564545
v -2.1627417973697159e-16 -1.1773418188095093 -0.2485806792974472
v -2.3910593959532145e-16 -1.3016321659088135 -0.21527718007564545
v -2.5581996428745773e-16 -1.392619013786316 -0.1242903396487236
v 0.3690558969974518 -1.3773353099822998 0.0
v 0.3604363203048706 -1.3451666831970215 0.1242903396487236
v 0.3368871808052063 -1.2572801113128662 0.21527718007564545
v 0.3047184944152832 -1.1372249126434326 0.2485806792974472
v 0.2725497782230377 -1.0171695947647095 0.21527718007564545
v 0.2490006536245346 -0.929283082485199 0.1242903396487236
v 0.24038107693195343 -0.8971143960952759 3.0442350889429753e-17
v 0.2490006536245346 -0.929283082485199 -0.1242903396487236
v 0.2725497782230377 -1.0171695947647095 -0.21527718007564545
v 0.3047184944152832 -1.1372249126434326 -0.2485806792974472
v 0.3368871808052063 -1.2572801113128662 -0.21527718007564545
v 0.3604363203048706 -1.3451666831970215 -0.1242903396487236
v 0.7129612565040588 -1.2348850965499878 0.0
v 0.696309506893158 -1.2060434818267822 0.1242903396487236
v 0.6508160829544067 -1.1272464990615845 0.21527718007564545
v 0.5886709094047546 -1.0196079015731812 0.2485806792974472
v 0.5265257358551025 -0.9119693636894226 0.21527718007564545
v 0.4810323119163513 -0.8331724405288696 0.1242903396487236
v 0.46438056230545044 -0.8043307662010193 3.0442350889429753e-17
v 0.4810323119163513 -0.8331724405288696 -0.1242903396487236
v 0.5265257358551025 -0.9119693636894226 -0.21527718007564545
v 0.5886709094047546 -1.0196079015731812 -0.2485806792974472
v 0.6508160829544067 -1.1272464990615845 -0.21527718007564545
v 0.696309506893158 -1.2060434818267822 -0.1242903396487236
v 1.0082794427871704 -1.0082794427871704 0.0
v 0.9847303628921509 -0.9847303628921509 0.1242903396487236
v 0.9203929305076599 -0.9203929305076599 0.21527718007564545
v 0.8325063586235046 -0.8325063586235046 0.2485806792974472
v 0.7446198463439941 -0.7446198463439941 0.21527718007564545
v 0.6802824139595032 -0.6802824139595032 0.1242903396487236
v 0.6567333340644836 -0.6567333340644836 3.0442350889429753e-17
v 0.6802824139595032 -0.6802824139595032 -0.1242903396487236
v 0.7446198463439941 -0.7446198463439941 -0.21527718007564545
v 0.8325063586235046 -0.8325063586235046 -0.2485806792974472
v 0.9203929305076599 -0.9203929305076599 -0.21527718007564545
v 0.9847303628921509 -0.9847303628921509 -0.1242903396487236
v 1.2348850965499878 -0.7129612565040588 0.0
v 1.2060434818267822 -0.696309506893158 0.1242903396487236
v 1.1272464990615845 -0.6508160829544067 0.21527718007564545
v 1.0196079015731812 -0.5886709094047546 0.2485806792974472
v 0.9119693636894226 -0.5265257358551025 0.21527718007564545
v 0.8331724405288696 -0.4810323119163513 0.1242903396487236
v 0.8043307662010193 -0.46438056230545044 3.0442350889429753e-17
v 0.8331724405288696 -0.4810323119163513 -0.1242903396487236
v 0.9119693636894226 -0.5265257358551025 -0.21527718007564545
v 1.0196079015731812 -0.5886709094047546 -0.2485806792974472
v 1.1272464990615845 -0.6508160829544067 -0.21527718007564545
v 1.2060434818267822 -0.696309506893158 -0.1242903396487236
v 1.3773353099822998 -0.3690558969974518 0.0
v 1.3451666831970215 -0.3604363203048706 0.1242903396487236
v 1.2572801113128662 -0.3368871808052063 0.21527718007564545
v 1.1372249126434326 -0.3047184944152832 0.2485806792974472
v 1.0171695947647095 -0.2725497782230377 0.21527718007564545
v 0.929283082485199 -0.2490006536245346 0.1242903396487236
v 0.8971143960952759 -0.24038107693195343 3.0442350889429753e-17
v 0.929283082485199 -0.2490006536245346 -0.1242903396487236
v 1.0171695947647095 -0.2725497782230377 -0.21527718007564545
v 1.1372249126434326 -0.3047184944152832 -0.2485806792974472
v 1.2572801113128662 -0.3368871808052063 -0.21527718007564545
v 1.3451666831970215 -0.3604363203048706 -0.1242903396487236
f 1 13 14
f 1 14 2
f 2 14 15
f 2 15 3
f 3 15 16
f 3 16 4
f 4 16 17
f 4 17 5
f 5 17 18
f 5 18 6
f 6 18 19
f 6 19 7
f 7 19 20
f 7 20 8
f 8 20 21
f 8 21 9
f 9 21 22
f 9 22 10
f 10 22 23
f 10 23 11
f 11 23 24
f 11 24 12
f 12 24 13
f 12 13 1
f 13 25 26
f 13 26 14
f 14 26 27
f 14 27 15
f 15 27 28
f 15 28 16
f 16 28 29
f 16 29 17
f 17 29 30
f 17 30 18
f 18 30 31
f 18 31 19
f 19 31 32
f 19 32 20
f 20 32 33
f 20 33 21
f 21 33 34
f 21 34 22
f 22 34 35
f 22 35 23
f 23 35 36
f 23 36 24
f 24 36 25
f 24 25 13
f 25 37 38
f 25 38 26
f 26 38 39
f 26 39 27
f 27 39 40
f 27 40 28
f 28 40 41
f 28 41 29
f 29 41 42
f 29 42 30
f 30 42 43
f 30 43 31
f 31 43 44
f 31 44 32
f 32 44 45
f 32 45 33
f 33 45 46
f 33 46 34
f 34 46 47
f 34 47 35
f 35 47 48
f 35 48 36
f 36 48 37
f 36 37 25
f 37 49 50
f 37 50 38
f 38 50 51
f 38 51 39
f 39 51 52
f 39 52 40
f 40 52 53
f 40 53 41
f 41 53 54
f 41 54 42
f 42 54 55
f 42 55 43
f 43 55 56
f 43 56 44
f 44 56 57
f 44 57 45
f 45 57 58
f 45 58 46
f 46 58 59
f 46 59 47
f 47 59 60
f 47 60 48
f 48 60 49
f 48 49 37
f 49 61 62
f 49 62 50
f 50 62 63
f 50 63 51
f 51 63 64
f 51 64 52
f 52 64 65
f 52 65 53
f 53 65 66
f 53 66 54
f 54 66 67
f 54 67 55
f 55 67 68
f 55 68 56
f 56 68 69
f 56 69 57
f 57 69 70
f 57 70 58
f 58 70 71
f 58 71 59
f 59 71 72
f 59 72 60
f 60 72 61
f 60 61 49
f 61 73 74
f 61 74 62
f 62 74 75
f 62 75 63
f 63 75 76
f 63 76 64
f 64 76 77
f 64 77 65
f 65 77 78
f 65 78 66
f 66 78 79
f 66 79 67
f 67 79 80
f 67 80 68
f 68 80 81
f 68 81 69
f 69 81 82
f 69 82 70
f 70 82 83
f 70 83 71
f 71 83 84
f 71 84 72
f 72 84 73
f 72 73 61
f 73 85 86
f 73 86 74
f 74 86 87
f 74 87 75
f 75 87 88
f 75 88 76
f 76 88 89
f 76 89 77
f 77 89 90
f 77 90 78
f 78 90 91
f 78 91 79
f 79 91 92
f 79 92 80
f 80 92 93
f 80 93 81
f 81 93 94
f 81 94 82
f 82 94 95
f 82 95 83
f 83 95 96
f 83 96 84
f 84 96 85
f 84 85 73
f 85 97 98
f 85 98 86
f 86 98 99
f 86 99 87
f 87 99 100
f 87 100 88
f 88 100 101
f 88 101 89
f 89 101 102
f 89 102 90
f 90 102 103
f 90 103 91
f 91 103 104
f 91 104 92
f 92 104 105
f 92 105 93
f 93 105 106
f 93 106 94
f 94 106 107
f 94 107 95
f 95 107 108
f 95 108 96
f 96 108 97
f 96 97 85
f 97 109 110
f 97 110 98
f 98 110 111
f 98 111 99
f 99 111 112
f 99 112 100
f 100 112 113
f 100 113 101
f 101 113 114
f 101 114 102
f 102 114 115
f 102 115 103
f 103 115 116
f 103 116 104
f 104 116 117
f 104 117 105
f 105 117 118
f 105 118 106
f 106 118 119
f 106 119 107
f 107 119 120
f 107 120 108
f 108 120 109
f 108 109 97
f 109 121 122
f 109 122 110
f 110 122 123
f 110 123 111
f 111 123 124
f 111 124 112
f 112 124 125
f 112 125 113
f 113 125 126
f 113 126 114
f 114 126 127
f 114 127 115
f 115 127 128
f 115 128 116
f 116 128 129
f 116 129 117
f 117 129 130
f 117 130 118
f 118 130 131
f 118 131 119
f 119 131 132
f 119 132 120
f 120 132 121
f 120 121 109
f 121 133 134
f 121 134 122
f 122 134 135
f 122 135 123
f 123 135 136
f 123 136 124
f 124 136 137
f 124 137 125
f 125 137 138
f 125 138 126
f 126 138 139
f 126 139 127
f 127 139 140
f 127 140 128
f 128 140 141
f 128 141 129
f 129 141 142
f 129 142 130
f 130 142 143
f 130 143 131
f 131 143 144
f 131 144 132
f 132 144 133
f 132 133 121
f 133 145 146
f 133 146 134
f 134 146 147
f 134 147 135
f 135 147 148
f 135 148 136
f 136 148 149
f 136 149 137
f 137 149 150
f 137 150 138
f 138 150 151
f 138 151 139
f 139 151 152
f 139 152 140
f 140 152 153
f 140 153 141
f 141 153 154
f 141 154 142
f 142 154 155
f 142 155 143
f 143 155 156
f 143 156 144
f 144 156 145
f 144 145 133
f 145 157 158
f 145 158 146
f 146 158 159
f 146 159 147
f 147 159 160
f 147 160 148
f 148 160 161
f 148 161 149
f 149 161 162
f 149 162 150
f 150 162 163
f 150 163 151
f 151 163 164
f 151 164 152
f 152 164 165
f 152 165 153
f 153 165 166
f 153 166 154
f 154 166 167
f 154 167 155
f 155 167 168
f 155 168 156
f 156 168 157
f 156 157 145
f 157 169 170
f 157 170 158
f 158 170 171
f 158 171 159
f 159 171 172
f 159 172 160
f 160 172 173
f 160 173 161
f 161 173 174
f 161 174 162
f 162 174 175
f 162 175 163
f 163 175 176
f 163 176 164
f 164 176 177
f 164 177 165
f 165 177 178
f 165 178 166
f 166 178 179
f 166 179 167
f 167 179 180
f 167 180 168
f 168 180 169
f 168 169 157
f 169 181 182
f 169 182 170
f 170 182 183
f 170 183 171
f 171 183 184
f 171 184 172
f 172 184 185
f 172 185 173
f 173 185 186
f 173 186 174
f 174 186 187
f 174 187 175
f 175 187 188
f 175 188 176
f 176 188 189
f 176 189 177
f 177 189 190
f 177 190 178
f 178 190 191
f 178 191 179
f 179 191 192
f 179 192 180
f 180 192 181
f 180 181 169
f 181 193 194
f 181 194 182
f 182 194 195
f 182 195 183
f 183 195 196
f 183 196 184
f 184 196 197
f 184 197 185
f 185 197 198
f 185 198 186
f 186 198 199
f 186 199 187
f 187 199 200
f 187 200 188
f 188 200 201
f 188 201 189
f 189 201 202
f 189 202 190
f 190 202 203
f 190 203 191
f 191 203 204
f 191 204 192
f 192 204 193
f 192 193 181
f 193 205 206
f 193 206 194
f 194 206 207
f 194 207 195
f 195 207 208
f 195 208 196
f 196 208 209
f 196 209 197
f 197 209 210
f 197 210 198
f 198 210 211
f 198 211 199
f 199 211 212
f 199 212 200
f 200 212 213
f 200 213 201
f 201 213 214
f 201 214 202
f 202 214 215
f 202 215 203
f 203 215 216
f 203 216 204
f 204 216 205
f 204 205 193
f 205 217 218
f 205 218 206
f 206 218 219
f 206 219 207
f 207 219 220
f 207 220 208
f 208 220 221
f 208 221 209
f 209 221 222
f 209 222 210
f 210 222 223
f 210 223 211
f 211 223 224
f 211 224 212
f 212 224 225
f 212 225 213
f 213 225 226
f 213 226 214
f 214 226 227
f 214 227 215
f 215 227 228
f 215 228 216
f 216 228 217
f 216 217 205
f 217 229 230
f 217 230 218
f 218 230 231
f 218 231 219
f 219 231 232
f 219 232 220
f 220 232 233
f 220 233 221
f 221 233 234
f 221 234 222
f 222 234 235
f 222 235 223
f 223 235 236
f 223 236 224
f 224 236 237
f 224 237 225
f 225 237 238
f 225 238 226
f 226 238 239
f 226 239 227
f 227 239 240
f 227 240 228
f 228 240 229
f 228 229 217
f 229 241 242
f 229 242 230
f 230 242 243
f 230 243 231
f 231 243 244
f 231 244 232
f 232 244 245
f 232 245 233
f 233 245 246
f 233 246 234
f 234 246 247
f 234 247 235
f 235 247 248
f 235 248 236
f 236 248 249
f 236 249 237
f 237 249 250
f 237 250 238
f 238 250 251
f 238 251 239
f 239 251 252
f 239 252 240
f 240 252 241
f 240 241 229
f 241 253 254
f 241 254 242
f 242 254 255
f 242 255 243
f 243 255 256
f 243 256 244
f 244 256 257
f 244 257 245
f 245 257 258
f 245 258 246
f 246 258 259
f 246 259 247
f 247 259 260
f 247 260 248
f 248 260 261
f 248 261 249
f 249 261 262
f 249 262 250
f 250 262 263
f 250 263 251
f 251 263 264
f 251 264 252
f 252 264 253
f 252 253 241
f 253 265 266
f 253 266 254
f 254 266 267
f 254 267 255
f 255 267 268
f 255 268 256
f 256 268 269
f 256 269 257
f 257 269 270
f 257 270 258
f 258 270 271
f 258 271 259
f 259 271 272
f 259 272 260
f 260 272 273
f 260 273 261
f 261 273 274
f 261 274 262
f 262 274 275
f 262 275 263
f 263 275 276
f 263 276 264
f 264 276 265
f 264 265 253
f 265 277 278
f 265 278 266
f 266 278 279
f 266 279 267
f 267 279 280
f 267 280 268
f 268 280 281
f 268 281 269
f 269 281 282
f 269 282 270
f 270 282 283
f 270 283 271
f 271 283 284
f 271 284 272
f 272 284 285
f 272 285 273
f 273 285 286
f 273 286 274
f 274 286 287
f 274 287 275
f 275 287 288
f 275 288 276
f 276 288 277
f 276 277 265
f 277 1 2
f 277 2 278
f 278 2 3
f 278 3 279
f 279 3 4
f 279 4 280
f 280 4 5
f 280 5 281
f 281 5 6
f 281 6 282
f 282 6 7
f 282 7 283
f 283 7 8
f 283 8 284
f 284 8 9
f 284 9 285
f 285 9 10
f 285 10 286
f 286 10 11
f 286 11 287
f 287 11 12
f 287 12 288
f 288 12 1
f 288 1 277
